<?xml version="1.0" encoding="UTF-8"?>
<svg id="Layer_1" data-name="Layer 1" xmlns="http://www.w3.org/2000/svg" viewBox="0 0 494.84 220">
  <g>
    <path d="M61.39,167.09c0,1.33-.96,2.93-2.89,4.81-1.93,1.88-3.55,2.82-4.87,2.82h-25.08c-1.32,0-2.97-.97-4.95-2.9-1.98-1.94-2.97-3.56-2.97-4.89v-25.19c0-1.77,1.1-3.51,3.3-5.22,2.2-1.71,4.18-2.57,5.94-2.57h22.44c1.76,0,3.71.83,5.86,2.49,2.15,1.66,3.22,3.37,3.22,5.14v25.52Z" style="fill: #FFFFFF; stroke-width: 0px;"/>
    <path d="M150.14,91.71h-26.84c-.88,0-2.29.94-4.23,2.81-1.93,1.87-2.9,3.25-2.9,4.13v68.29c-1.31,4.96-4.58,7.44-9.82,7.44s-8.51-2.48-10.15-7.44v-87.6c0-1.1.55-2.31,1.65-3.64,2.2-2.75,4.95-4.13,8.25-4.13,2.42,0,4.84.88,7.26,2.64,6.6-1.76,9.74-2.64,9.41-2.64h25.91c2.64,0,4.76.99,6.35,2.97,1.59,1.98,2.39,4.35,2.39,7.1,0,5.5-2.43,8.86-7.29,10.07Z" style="fill: #FFFFFF; stroke-width: 0px;"/>
    <path d="M267.16,149.72c0,4.97-2.94,10.38-8.83,16.22-5.89,5.85-11.3,8.77-16.25,8.77h-52.64c-4.95,0-10.37-2.95-16.25-8.86-5.89-5.9-8.83-11.34-8.83-16.31v-52.81c0-5.41,3.05-10.95,9.16-16.64,6.11-5.68,11.85-8.53,17.24-8.53h50c5.39,0,11.14,2.82,17.24,8.44,6.11,5.63,9.16,11.15,9.16,16.55v53.14ZM247.2,147.63v-48.97c0-1.32-1.05-2.81-3.14-4.47-2.09-1.66-3.85-2.48-5.28-2.48h-45.88c-1.32,0-3.08.86-5.28,2.57-2.2,1.71-3.3,3.23-3.3,4.55v48.64c0,.88.96,2.29,2.89,4.22,1.92,1.93,3.33,2.9,4.21,2.9h48.68c.77,0,2.15-.96,4.13-2.9,1.98-1.93,2.97-3.28,2.97-4.05Z" style="fill: #FFFFFF; stroke-width: 0px;"/>
    <path d="M382.51,125.52c0,1.33-.96,2.92-2.89,4.8-1.93,1.88-3.55,2.81-4.87,2.81h-75.08v14.52c0,.77.99,2.12,2.97,4.04,1.98,1.93,3.35,2.89,4.13,2.89h47.36c1.65,0,3.35,1.08,5.12,3.25,1.76,2.16,2.64,4.08,2.64,5.74.33,1.88-.39,4.21-2.15,6.99-1.76,2.77-3.63,4.16-5.61,4.16h-49.34c-4.95,0-10.37-2.95-16.25-8.86-5.89-5.9-8.83-11.34-8.83-16.31v-52.81c0-5.41,3.05-10.95,9.16-16.64,6.11-5.68,11.85-8.53,17.25-8.53h50c5.39,0,11.14,2.81,17.24,8.44,6.11,5.63,9.16,11.14,9.16,16.55v28.96ZM362.54,113v-14.3c0-1.33-1.05-2.83-3.14-4.49-2.1-1.66-3.86-2.5-5.3-2.5h-45.99c-1.44,0-3.2.86-5.3,2.58-2.1,1.72-3.14,3.24-3.14,4.57v14.14h62.87Z" style="fill: #FFFFFF; stroke-width: 0px;"/>
    <path d="M473.6,163.57c.33,1.88-.39,4.21-2.15,6.99-1.76,2.77-3.63,4.16-5.61,4.16h-45.88c-2.75,0-5.01-1.89-6.77-5.66-.44-1.11-.77-2.22-.99-3.33-.33-1.89.36-4.21,2.06-6.99,1.7-2.77,3.6-4.16,5.69-4.16h12.87V50.45h-12.87c-1.87,0-3.55-.99-5.03-2.97-1.49-1.98-2.39-4.01-2.72-6.11-.33-.55-.49-1.15-.49-1.81,0-1.98,1.1-4.01,3.3-6.11,2.2-2.09,4.29-3.14,6.27-3.14h22.44c1.54,0,3.44.8,5.69,2.39,2.25,1.6,3.38,3.11,3.38,4.54v117.33h13.04c1.65,0,3.35,1.08,5.12,3.25,1.76,2.16,2.64,4.08,2.64,5.74Z" style="fill: #FFFFFF; stroke-width: 0px;"/>
  </g>
  <rect x="25.84" y="203" width="469" height="17" style="fill: #FFFFFF; stroke-width: 0px;"/>
  <rect x="25.84" width="469" height="17" style="fill: #FFFFFF; stroke-width: 0px;"/>
</svg>