<svg xmlns="http://www.w3.org/2000/svg" xmlns:xlink="http://www.w3.org/1999/xlink" viewBox="0,0,256,256" width="48px" height="48px"><g fill="none" fill-rule="none" stroke="none" stroke-width="1" stroke-linecap="butt" stroke-linejoin="miter" stroke-miterlimit="10" stroke-dasharray="" stroke-dashoffset="0" font-family="none" font-weight="none" font-size="none" text-anchor="none" style="mix-blend-mode: normal"><g transform="scale(5.33333,5.33333)"><path d="M42.924,16.01c-0.1,-0.358 -0.294,-0.685 -0.563,-0.948c-0.135,-0.131 -0.288,-0.247 -0.458,-0.342c-3.356,-1.883 -13.452,-7.551 -16.807,-9.434c-0.678,-0.381 -1.514,-0.381 -2.193,0c-3.354,1.883 -13.452,7.551 -16.806,9.434c-0.509,0.286 -0.872,0.753 -1.021,1.291c-0.05,0.179 -0.076,0.365 -0.076,0.556v0c0,3.766 0,15.101 0,18.867c0,0.762 0.418,1.465 1.096,1.846c1.258,0.706 3.465,1.945 5.908,3.316c2.85,1.6 6.023,3.381 8.39,4.71c1.014,0.569 1.88,1.055 2.509,1.409c0.169,0.095 0.349,0.167 0.533,0.214c0.185,0.047 0.374,0.071 0.563,0.071c0.189,0 0.379,-0.024 0.563,-0.071c0.184,-0.048 0.364,-0.119 0.534,-0.214c3.356,-1.883 13.452,-7.551 16.807,-9.434c0.679,-0.382 1.097,-1.086 1.097,-1.848c0,-3.766 0,-15.101 0,-18.867c0,-0.191 -0.026,-0.377 -0.076,-0.556z" fill="#000000" fill-rule="nonzero"></path><path d="M22.954,4.24c0.648,-0.363 1.445,-0.363 2.092,0c3.2,1.796 12.832,7.203 16.033,9c0.648,0.362 1.046,1.034 1.046,1.761c0,3.593 0,14.406 0,17.998c0,0.727 -0.399,1.398 -1.046,1.762c-3.2,1.796 -12.832,7.203 -16.033,9c-0.648,0.363 -1.445,0.363 -2.092,0c-3.2,-1.796 -12.832,-7.203 -16.033,-9c-0.647,-0.364 -1.046,-1.035 -1.046,-1.761c0,-3.593 0,-14.406 0,-17.998c0,-0.727 0.399,-1.398 1.046,-1.762c3.2,-1.797 12.833,-7.204 16.033,-9z" fill="#ffffff" fill-rule="evenodd"></path><path d="M24,5c0.029,0 0.073,0.005 0.117,0.03l5.847,3.282l10.962,6.153c0.046,0.026 0.074,0.064 0.074,0.101v18.867c0,0.037 -0.029,0.077 -0.076,0.103l-6.288,3.53l-10.519,5.904c-0.044,0.025 -0.088,0.03 -0.118,0.03c-0.029,0 -0.073,-0.005 -0.117,-0.03l-6.092,-3.42l-10.714,-6.014c-0.047,-0.026 -0.076,-0.065 -0.076,-0.102v-18.867c0,-0.037 0.029,-0.077 0.076,-0.103l8.235,-4.623l8.571,-4.811c0.044,-0.025 0.088,-0.03 0.118,-0.03M24,3c-0.379,0 -0.757,0.095 -1.097,0.286c-3.354,1.883 -13.452,7.551 -16.806,9.434c-0.679,0.381 -1.097,1.085 -1.097,1.847c0,3.766 0,15.101 0,18.867c0,0.762 0.418,1.465 1.096,1.846c3.356,1.883 13.452,7.551 16.807,9.434c0.339,0.19 0.717,0.286 1.096,0.286c0.379,0 0.757,-0.095 1.097,-0.286c3.356,-1.883 13.452,-7.551 16.807,-9.434c0.679,-0.381 1.097,-1.085 1.097,-1.847c0,-3.766 0,-15.101 0,-18.867c0,-0.762 -0.418,-1.466 -1.097,-1.846c-3.356,-1.883 -13.452,-7.551 -16.807,-9.434c-0.339,-0.19 -0.717,-0.286 -1.096,-0.286z" fill="#000000" fill-rule="nonzero"></path><rect x="28" y="21" width="2" height="6" fill="#000000" fill-rule="evenodd"></rect><rect x="35" y="21" width="2" height="6" fill="#000000" fill-rule="evenodd"></rect><rect x="26" y="23" width="6" height="2" fill="#000000" fill-rule="evenodd"></rect><rect x="33" y="23" width="6" height="2" fill="#000000" fill-rule="evenodd"></rect><path d="M22,37c-7.168,0 -13,-5.832 -13,-13c0,-7.168 5.832,-13 13,-13c3.816,0 7.43,1.679 9.912,4.607c0.192,0.227 0.273,0.527 0.223,0.82c-0.052,0.293 -0.231,0.547 -0.489,0.695l-3.56,2.034c-0.389,0.222 -0.877,0.159 -1.195,-0.153c-1.32,-1.292 -3.057,-2.003 -4.891,-2.003c-3.859,0 -7,3.14 -7,7c0,3.86 3.141,7 7,7c1.897,0 3.677,-0.754 5.009,-2.123c0.314,-0.322 0.806,-0.394 1.199,-0.178l3.59,1.975c0.259,0.143 0.442,0.394 0.499,0.684c0.057,0.291 -0.019,0.592 -0.205,0.822c-2.488,3.063 -6.166,4.82 -10.092,4.82zM22,13c-6.065,0 -11,4.935 -11,11c0,6.065 4.935,11 11,11c2.917,0 5.672,-1.147 7.727,-3.183l-1.845,-1.015c-1.637,1.423 -3.697,2.198 -5.882,2.198c-4.963,0 -9,-4.038 -9,-9c0,-4.962 4.037,-9 9,-9c2.105,0 4.109,0.727 5.721,2.061l1.829,-1.045c-2.037,-1.93 -4.728,-3.016 -7.55,-3.016z" fill="#000000" fill-rule="nonzero"></path></g></g></svg>