<svg xmlns="http://www.w3.org/2000/svg" xmlns:xlink="http://www.w3.org/1999/xlink" viewBox="0,0,256,256" width="48px" height="48px"><g fill="#ffffff" fill-rule="nonzero" stroke="none" stroke-width="1" stroke-linecap="butt" stroke-linejoin="miter" stroke-miterlimit="10" stroke-dasharray="" stroke-dashoffset="0" font-family="none" font-weight="none" font-size="none" text-anchor="none" style="mix-blend-mode: normal"><g transform="scale(5.33333,5.33333)"><path d="M35,43c-5.514,0 -10,-4.486 -10,-10c0,-3.562 1.916,-6.88 5,-8.66l3,5.196c-1.233,0.712 -2,2.039 -2,3.464c0,2.168 1.832,4 4,4c2.168,0 4,-1.832 4,-4c0,-1.425 -0.767,-2.752 -2,-3.464l3,-5.196c3.084,1.78 5,5.099 5,8.66c0,5.514 -4.486,10 -10,10z"></path><path d="M29,22.629l-3,-5.196c1.233,-0.712 2,-2.04 2,-3.464c0,-2.168 -1.832,-4 -4,-4c-2.168,0 -4,1.832 -4,4c0,1.425 0.767,2.752 2,3.464l-3,5.196c-3.084,-1.781 -5,-5.1 -5,-8.661c0,-5.514 4.486,-10 10,-10c5.514,0 10,4.486 10,10c0,3.562 -1.916,6.881 -5,8.661z"></path><path d="M13.001,43.028c-3.459,0 -6.827,-1.793 -8.678,-4.997c-2.757,-4.776 -1.115,-10.903 3.66,-13.661c3.085,-1.781 6.917,-1.781 10,0l-3,5.196c-1.234,-0.713 -2.766,-0.713 -4,0c-1.878,1.084 -2.548,3.586 -1.465,5.464c1.084,1.877 3.586,2.549 5.465,1.464c1.233,-0.712 2,-2.04 2,-3.464h6c0,3.561 -1.916,6.879 -5,8.66c-1.57,0.908 -3.288,1.338 -4.982,1.338z"></path></g></g></svg>